<svg viewBox="0 0 183 42" xmlns="http://www.w3.org/2000/svg" data-logo="logo">
        <g transform="translate(0, 1) rotate(0)" id="logogram" style="opacity: 1;"><path fill="url(#paint0_linear_7697_8782)" d="M24 0H16V12.0632C15.9663 14.2434 14.1885 16 12.0005 16H0V24H8.68629C10.808 24 12.8429 23.1571 14.3431 21.6569L21.6569 14.3431C23.1571 12.8429 24 10.808 24 8.68629V0Z"></path><path fill="url(#paint1_linear_7697_8782)" d="M16 40H24V27.9368C24.0337 25.7566 25.8115 24 27.9995 24H40V16H31.3137C29.192 16 27.1571 16.8429 25.6569 18.3431L18.3431 25.6569C16.8429 27.1571 16 29.192 16 31.3137V40Z"></path></g>
        <g transform="translate(46, 8.5)" id="logotype" style="opacity: 1;"><path d="M12.55 25.35L12.55 25.35Q11.36 25.35 10.41 25.05Q9.46 24.75 8.77 24.02Q8.07 23.29 7.61 21.95Q7.16 20.63 6.93 18.56Q6.70 16.49 6.70 13.55L6.70 13.55Q6.70 10.12 7.12 7.74Q7.54 5.36 8.26 3.88Q8.97 2.39 9.88 1.57Q10.80 0.74 11.78 0.45Q12.76 0.15 13.70 0.15L13.70 0.15Q15.21 0.15 15.91 0.45Q16.61 0.74 16.82 1.22Q17.02 1.69 17.02 2.21L17.02 2.21Q17.02 2.91 16.85 3.53Q16.68 4.14 16.47 4.59L16.47 4.59Q16.26 4.42 15.98 4.30Q15.70 4.17 15.36 4.09Q15.03 4.00 14.65 4.00L14.65 4.00Q14.05 4.00 13.49 4.23Q12.93 4.45 12.44 5.05Q11.95 5.64 11.60 6.69Q11.25 7.74 11.04 9.35Q10.83 10.96 10.83 13.24L10.83 13.24Q10.83 15.51 10.99 17.02Q11.14 18.52 11.46 19.38Q11.78 20.24 12.30 20.61Q12.83 20.98 13.56 20.98L13.56 20.98Q14.37 20.98 15.08 20.84Q15.80 20.70 16.29 20.45L16.29 20.45Q16.50 20.91 16.66 21.52Q16.82 22.13 16.82 22.76L16.82 22.76Q16.82 23.57 16.31 24.16Q15.80 24.75 14.84 25.05Q13.88 25.35 12.55 25.35ZM23.05 25.35L23.05 25.35Q22.07 25.35 21.17 25.18Q20.28 25 19.58 24.44Q18.88 23.88 18.48 22.80Q18.07 21.71 18.07 19.89L18.07 19.89Q18.07 18.11 18.41 16.97Q18.74 15.83 19.32 15.20Q19.89 14.57 20.61 14.34Q21.33 14.11 22.10 14.11L22.10 14.11Q22.48 14.11 23.19 14.22Q23.89 14.32 24.34 14.64L24.34 14.64Q24.34 14.64 24.34 14.24Q24.34 13.83 24.34 13.27Q24.34 12.71 24.34 12.22L24.34 12.22Q24.34 11.77 24.20 11.49Q24.06 11.21 23.75 11.07Q23.43 10.93 22.87 10.93L22.87 10.93Q21.89 10.93 20.72 11.14Q19.55 11.35 18.67 11.66L18.67 11.66Q18.36 11.07 18.25 10.44Q18.14 9.81 18.14 9.39L18.14 9.39Q18.14 9.07 18.27 8.71Q18.39 8.34 18.64 8.16L18.64 8.16Q19.02 7.88 20.39 7.52Q21.75 7.15 23.85 7.15L23.85 7.15Q26.27 7.15 27.26 8.09Q28.26 9.04 28.26 11.42L28.26 11.42L28.26 13.06Q28.26 15.06 28.26 17.16Q28.26 19.26 28.23 21.10Q28.19 22.93 28.09 24.23L28.09 24.23Q27.21 24.75 25.91 25.05Q24.62 25.35 23.05 25.35ZM23.32 22.13L23.32 22.13Q23.57 22.13 23.85 22.04Q24.13 21.95 24.27 21.78L24.27 21.78Q24.30 21.39 24.32 20.61Q24.34 19.82 24.34 18.91Q24.34 18 24.34 17.27L24.34 17.27Q24.16 17.09 23.90 17.04Q23.64 16.98 23.43 16.98L23.43 16.98Q23.15 16.98 22.92 17.11Q22.70 17.23 22.54 17.54Q22.38 17.86 22.29 18.40Q22.20 18.95 22.20 19.79L22.20 19.79Q22.20 20.41 22.26 20.85Q22.31 21.29 22.43 21.59Q22.55 21.88 22.78 22.01Q23.01 22.13 23.32 22.13ZM30.36 25L30.36 25L30.36 8.72Q31.27 8.09 32.51 7.62Q33.76 7.15 35.23 7.15L35.23 7.15Q36.66 7.15 37.12 7.57Q37.57 7.99 37.57 8.90L37.57 8.90Q37.57 9.25 37.50 9.88Q37.43 10.51 37.19 11.17L37.19 11.17Q36.84 11.00 36.50 10.95Q36.17 10.89 35.89 10.89L35.89 10.89Q35.58 10.89 35.16 11.03Q34.73 11.17 34.39 11.45L34.39 11.45L34.35 24.30Q34.35 24.65 34.19 24.79Q34.04 24.93 33.20 24.96Q32.36 25 30.36 25ZM44.05 25.35L44.05 25.35Q42.86 25.35 41.86 24.98Q40.86 24.61 40.14 23.70Q39.43 22.80 39.02 21.18Q38.62 19.57 38.62 17.09L38.62 17.09Q38.62 13.90 39.11 11.94Q39.60 9.98 40.46 8.95Q41.32 7.92 42.44 7.53Q43.55 7.15 44.78 7.15L44.78 7.15Q46.88 7.15 48.07 8.48Q49.26 9.81 49.26 12.85L49.26 12.85Q49.26 14.11 49.16 15.46Q49.05 16.81 48.77 17.82L48.77 17.82Q47.76 18.04 46.43 18.14Q45.09 18.24 43.84 18.30Q42.58 18.35 41.75 18.35Q40.93 18.35 40.93 18.35L40.93 18.35L41 15.23Q41 15.23 41.51 15.25Q42.02 15.27 42.75 15.27Q43.48 15.27 44.19 15.20Q44.89 15.13 45.27 14.95L45.27 14.95Q45.38 14.64 45.41 14.10Q45.45 13.55 45.45 13.13L45.45 13.13Q45.45 11.45 45.18 11.00Q44.92 10.54 44.26 10.54L44.26 10.54Q43.80 10.54 43.48 10.93Q43.17 11.31 43.00 12.10Q42.82 12.89 42.75 14.06Q42.68 15.23 42.68 16.84L42.68 16.84Q42.68 18.07 42.77 18.96Q42.86 19.86 43.08 20.41Q43.31 20.98 43.78 21.25Q44.26 21.54 44.99 21.54L44.99 21.54Q45.94 21.54 46.86 21.27Q47.79 21.01 48.70 20.55L48.70 20.55Q48.88 21.08 48.95 21.83Q49.02 22.59 49.02 23.18L49.02 23.18Q49.02 23.88 48.33 24.37Q47.65 24.86 46.53 25.11Q45.41 25.35 44.05 25.35ZM61.41 25.35L61.41 25.35Q60.22 25.35 59.27 25.05Q58.33 24.75 57.63 24.02Q56.92 23.29 56.47 21.95Q56.02 20.63 55.79 18.56Q55.56 16.49 55.56 13.55L55.56 13.55Q55.56 10.12 55.98 7.74Q56.40 5.36 57.12 3.88Q57.84 2.39 58.74 1.57Q59.66 0.74 60.63 0.45Q61.62 0.15 62.56 0.15L62.56 0.15Q64.06 0.15 64.77 0.45Q65.47 0.74 65.67 1.22Q65.89 1.69 65.89 2.21L65.89 2.21Q65.89 2.91 65.71 3.53Q65.53 4.14 65.33 4.59L65.33 4.59Q65.11 4.42 64.84 4.30Q64.56 4.17 64.22 4.09Q63.89 4.00 63.51 4.00L63.51 4.00Q62.91 4.00 62.35 4.23Q61.79 4.45 61.30 5.05Q60.81 5.64 60.46 6.69Q60.11 7.74 59.90 9.35Q59.69 10.96 59.69 13.24L59.69 13.24Q59.69 15.51 59.85 17.02Q60.01 18.52 60.32 19.38Q60.63 20.24 61.16 20.61Q61.69 20.98 62.42 20.98L62.42 20.98Q63.23 20.98 63.94 20.84Q64.66 20.70 65.15 20.45L65.15 20.45Q65.36 20.91 65.52 21.52Q65.67 22.13 65.67 22.76L65.67 22.76Q65.67 23.57 65.17 24.16Q64.66 24.75 63.70 25.05Q62.73 25.35 61.41 25.35ZM72.47 25.35L72.47 25.35Q71.06 25.35 70.02 25.02Q68.97 24.68 68.28 23.72Q67.60 22.76 67.27 20.96Q66.94 19.16 66.94 16.21L66.94 16.21Q66.94 11.45 68.46 9.30Q69.98 7.15 72.75 7.15L72.75 7.15Q74.64 7.15 75.84 7.90Q77.05 8.65 77.63 10.60Q78.20 12.54 78.20 16.07L78.20 16.07Q78.20 21.15 76.75 23.25Q75.30 25.35 72.47 25.35ZM72.57 22.09L72.57 22.09Q72.92 22.09 73.22 21.75Q73.52 21.39 73.71 20.13Q73.90 18.88 73.90 16.18L73.90 16.18Q73.90 13.66 73.80 12.42Q73.69 11.17 73.41 10.79Q73.13 10.40 72.61 10.40L72.61 10.40Q72.22 10.40 71.91 10.81Q71.59 11.21 71.42 12.45Q71.24 13.69 71.24 16.18L71.24 16.18Q71.24 18.21 71.33 19.42Q71.42 20.63 71.57 21.18Q71.73 21.75 71.99 21.92Q72.25 22.09 72.57 22.09ZM80.06 25L80.06 25L80.06 8.30Q80.62 8.02 81.56 7.76Q82.51 7.50 83.56 7.32Q84.61 7.15 85.48 7.15L85.48 7.15Q87.27 7.15 88.37 7.55Q89.47 7.95 90 8.93Q90.53 9.91 90.53 11.66L90.53 11.66L90.53 24.30Q90.53 24.65 90.33 24.79Q90.14 24.93 89.30 24.96Q88.46 25 86.47 25L86.47 25L86.47 12.89Q86.47 11.52 86.25 11.02Q86.05 10.51 85.31 10.51L85.31 10.51Q84.96 10.51 84.61 10.61Q84.26 10.72 83.98 10.93L83.98 10.93L83.98 24.30Q83.98 24.65 83.81 24.79Q83.63 24.93 82.81 24.96Q81.98 25 80.06 25ZM92.70 25L92.70 25L92.70 8.30Q93.26 8.02 94.20 7.76Q95.15 7.50 96.20 7.32Q97.25 7.15 98.12 7.15L98.12 7.15Q99.91 7.15 101.01 7.55Q102.11 7.95 102.64 8.93Q103.16 9.91 103.16 11.66L103.16 11.66L103.16 24.30Q103.16 24.65 102.97 24.79Q102.78 24.93 101.94 24.96Q101.10 25 99.10 25L99.10 25L99.10 12.89Q99.10 11.52 98.89 11.02Q98.68 10.51 97.95 10.51L97.95 10.51Q97.60 10.51 97.25 10.61Q96.90 10.72 96.62 10.93L96.62 10.93L96.62 24.30Q96.62 24.65 96.44 24.79Q96.27 24.93 95.44 24.96Q94.62 25 92.70 25ZM110.30 25.35L110.30 25.35Q109.11 25.35 108.11 24.98Q107.12 24.61 106.40 23.70Q105.68 22.80 105.28 21.18Q104.88 19.57 104.88 17.09L104.88 17.09Q104.88 13.90 105.37 11.94Q105.86 9.98 106.71 8.95Q107.57 7.92 108.69 7.53Q109.81 7.15 111.04 7.15L111.04 7.15Q113.14 7.15 114.33 8.48Q115.52 9.81 115.52 12.85L115.52 12.85Q115.52 14.11 115.41 15.46Q115.31 16.81 115.03 17.82L115.03 17.82Q114.01 18.04 112.68 18.14Q111.35 18.24 110.09 18.30Q108.83 18.35 108.01 18.35Q107.19 18.35 107.19 18.35L107.19 18.35L107.26 15.23Q107.26 15.23 107.76 15.25Q108.27 15.27 109.01 15.27Q109.74 15.27 110.44 15.20Q111.14 15.13 111.53 14.95L111.53 14.95Q111.63 14.64 111.67 14.10Q111.70 13.55 111.70 13.13L111.70 13.13Q111.70 11.45 111.44 11.00Q111.18 10.54 110.51 10.54L110.51 10.54Q110.06 10.54 109.74 10.93Q109.43 11.31 109.25 12.10Q109.08 12.89 109.01 14.06Q108.94 15.23 108.94 16.84L108.94 16.84Q108.94 18.07 109.02 18.96Q109.11 19.86 109.34 20.41Q109.57 20.98 110.04 21.25Q110.51 21.54 111.25 21.54L111.25 21.54Q112.19 21.54 113.12 21.27Q114.05 21.01 114.96 20.55L114.96 20.55Q115.13 21.08 115.20 21.83Q115.27 22.59 115.27 23.18L115.27 23.18Q115.27 23.88 114.59 24.37Q113.91 24.86 112.79 25.11Q111.67 25.35 110.30 25.35ZM122.10 25.35L122.10 25.35Q120.73 25.35 119.75 25Q118.77 24.65 118.14 23.70Q117.51 22.76 117.21 21.06Q116.92 19.36 116.92 16.63L116.92 16.63Q116.92 13.48 117.48 11.59Q118.04 9.70 118.95 8.74Q119.86 7.78 120.96 7.46Q122.06 7.15 123.15 7.15L123.15 7.15Q124.44 7.15 125.25 7.62Q126.05 8.09 126.05 8.93L126.05 8.93Q126.05 9.32 125.98 9.86Q125.91 10.40 125.70 11.03L125.70 11.03Q125.28 10.86 124.67 10.72Q124.06 10.58 123.50 10.58L123.50 10.58Q123.04 10.58 122.59 10.77Q122.13 10.96 121.78 11.58Q121.43 12.19 121.22 13.38Q121.01 14.57 121.01 16.56L121.01 16.56Q121.01 18.07 121.12 19.10Q121.22 20.13 121.48 20.75Q121.75 21.36 122.20 21.62Q122.66 21.88 123.36 21.88L123.36 21.88Q123.92 21.88 124.55 21.75Q125.18 21.61 125.60 21.39L125.60 21.39Q125.77 22.06 125.84 22.53Q125.91 23.00 125.91 23.46L125.91 23.46Q125.91 24.34 124.84 24.84Q123.78 25.35 122.10 25.35ZM132.46 25.35L132.46 25.35Q130.92 25.35 130.13 24.77Q129.34 24.20 129.08 23.07Q128.82 21.95 128.82 20.41L128.82 20.41L128.82 10.82L126.72 10.82Q126.72 9.32 126.75 8.62Q126.79 7.92 126.96 7.71Q127.14 7.50 127.52 7.50L127.52 7.50L128.82 7.50L128.82 2.42Q128.82 1.79 129.15 1.55Q129.48 1.30 130.32 1.25Q131.16 1.20 132.74 1.20L132.74 1.20L132.74 7.50L135.61 7.50Q135.61 9.00 135.57 9.70Q135.54 10.40 135.38 10.61Q135.22 10.82 134.84 10.82L134.84 10.82L132.74 10.82L132.74 20.34Q132.74 20.73 132.77 21.13Q132.81 21.54 132.98 21.78Q133.16 22.02 133.58 22.02L133.58 22.02Q134.07 22.02 134.49 21.92Q134.91 21.81 135.40 21.57L135.40 21.57Q135.47 21.92 135.55 22.39Q135.64 22.86 135.64 23.46L135.64 23.46Q135.64 24.30 135.12 24.70Q134.59 25.11 133.86 25.23Q133.12 25.35 132.46 25.35Z" fill="#1f212e"></path></g>
        <defs xmlns="http://www.w3.org/2000/svg">
<linearGradient gradientUnits="userSpaceOnUse" y2="33.7931" x2="20" y1="-0.997096" x1="20" id="paint0_linear_7697_8782">
<stop stop-color="#75D8FC"></stop>
<stop stop-color="#0072E5" offset="1"></stop>
</linearGradient>
<linearGradient gradientUnits="userSpaceOnUse" y2="33.7931" x2="20" y1="-0.997096" x1="20" id="paint1_linear_7697_8782">
<stop stop-color="#75D8FC"></stop>
<stop stop-color="#0072E5" offset="1"></stop>
</linearGradient>
</defs>
      </svg>